PathFileType	3	(X/Y/Z)	walking_2__fused_aligned.trc
DataRate	CameraRate	NumFrames	NumMarkers	Units	OrigDataRate	OrigDataStartFrame	OrigNumFrames
100.0	100.0	9	19	mm	100.0	5719	6270
Frame#	Time	pelvis			neck			head			hip_left			hip_right			knee_left			knee_right			ankle_left			ankle_right			heel_left			heel_right			toe_left			toe_right			shoulder_left			shoulder_right			elbow_left			elbow_right			wrist_left			wrist_right			
		X1	Y1	Z1	X2	Y2	Z2	X3	Y3	Z3	X4	Y4	Z4	X5	Y5	Z5	X6	Y6	Z6	X7	Y7	Z7	X8	Y8	Z8	X9	Y9	Z9	X10	Y10	Z10	X11	Y11	Z11	X12	Y12	Z12	X13	Y13	Z13	X14	Y14	Z14	X15	Y15	Z15	X16	Y16	Z16	X17	Y17	Z17	X18	Y18	Z18	X19	Y19	Z19	
5719	57.18000	87.071958	943.888013	95.606726	58.703874	1500.169631	175.942082	56.310606	1573.372889	328.432917	164.032923	949.172832	98.015998	10.110654	938.603212	93.197518	161.096337	515.555108	192.291684	-48.708446	526.612996	228.659933	154.412059	95.500501	149.039318	-68.028444	225.975452	-41.155581	152.622451	44.374503	116.812995	-63.838252	210.826680	-93.787045	139.430980	46.183684	338.479863	-85.715756	74.360181	49.454279	239.132787	1459.170474	136.596433	-115.560960	1434.268318	136.186312	321.800793	1177.972519	81.471308	-158.926848	1141.997430	127.078423	355.538499	926.094024	136.454233	-163.455011	917.025129	243.431878
5720	57.19000	87.662481	944.186308	94.873934	58.919045	1500.457891	175.426381	55.700372	1574.197644	327.631797	164.651541	949.608871	97.508935	10.673064	938.763758	92.239015	161.491737	515.060846	186.090207	-48.766758	528.384624	234.134192	154.642547	95.351158	137.405598	-68.101560	226.543075	-29.842883	152.864517	44.507502	104.593420	-63.801233	210.963015	-81.926427	139.560745	44.266278	326.483696	-86.448859	76.548164	61.630301	239.592581	1459.269040	138.261222	-114.845660	1434.617361	133.659503	323.143757	1178.132806	86.174768	-157.415395	1142.299784	120.746547	355.153395	927.178199	145.034204	-164.655464	914.601060	231.620002
5721	57.20000	88.253004	944.484603	94.141143	59.134216	1500.746151	174.910679	55.090137	1575.022399	326.830676	165.270159	950.044909	97.001871	11.235475	938.924303	91.280512	161.887137	514.566583	179.888730	-48.825070	530.156252	239.608450	154.873035	95.201816	125.771878	-68.174677	227.110698	-18.530186	153.106582	44.640500	92.373845	-63.764214	211.099349	-70.065810	139.690510	42.348872	314.487528	-87.181962	78.736147	73.806324	240.052375	1459.367605	139.926012	-114.130360	1434.966405	131.132693	324.486721	1178.293092	90.878228	-155.903941	1142.602139	114.414670	354.768292	928.262375	153.614175	-165.855917	912.176991	219.808126
5722	57.21000	88.843527	944.782898	93.408352	59.349387	1501.034410	174.394977	54.479903	1575.847154	326.029556	165.888778	950.480948	96.494808	11.797885	939.084848	90.322009	162.282537	514.072321	173.687254	-48.883381	531.927881	245.082709	155.103523	95.052474	114.138158	-68.247794	227.678321	-7.217488	153.348648	44.773498	80.154270	-63.727196	211.235684	-58.205193	139.820274	40.431466	302.491361	-87.915065	80.924130	85.982346	240.512169	1459.466171	141.590801	-113.415060	1435.315448	128.605884	325.829684	1178.453379	95.581688	-154.392487	1142.904494	108.082794	354.383188	929.346551	162.194146	-167.056370	909.752922	207.996250
5723	57.22000	89.434050	945.081193	92.675560	59.564558	1501.322670	173.879275	53.869668	1576.671910	325.228435	166.507396	950.916987	95.987744	12.360295	939.245394	89.363506	162.677936	513.578058	167.485777	-48.941693	533.699509	250.556968	155.334011	94.903132	102.504438	-68.320910	228.245945	4.095210	153.590714	44.906497	67.934694	-63.690177	211.372018	-46.344575	139.950039	38.514060	290.495194	-88.648167	83.112112	98.158368	240.971963	1459.564737	143.255591	-112.699761	1435.664492	126.079074	327.172648	1178.613666	100.285148	-152.881034	1143.206849	101.750918	353.998085	930.430727	170.774117	-168.256823	907.328854	196.184374
5724	57.23000	89.219740	945.086161	91.905279	58.675064	1501.426528	173.617095	52.142133	1577.123215	324.785018	166.266908	950.982347	95.411469	12.172184	939.189967	88.399221	162.919939	513.092848	160.246399	-49.755388	535.087104	254.715194	156.193366	95.101341	91.257704	-69.592407	226.522264	18.276273	154.563846	45.181904	56.311974	-64.986531	208.552880	-31.211623	140.866403	38.130028	279.604015	-90.394372	85.165473	115.070598	240.282801	1459.544097	144.995012	-112.976964	1435.950459	123.836791	327.194671	1178.682190	105.115261	-152.945139	1143.867898	95.985946	352.536103	931.547080	179.502238	-171.010109	906.041136	185.268239
5725	57.24000	89.005430	945.091129	91.134998	57.785569	1501.530387	173.354915	50.414597	1577.574520	324.341601	166.026421	951.047707	94.835193	11.984073	939.134541	87.434936	163.161943	512.607637	153.007021	-50.569083	536.474699	258.873421	157.052721	95.299550	80.010970	-70.863905	224.798584	32.457335	155.536978	45.457312	44.689253	-66.282885	205.733742	-16.078670	141.782768	37.745995	268.712836	-92.140577	87.218834	131.982829	239.593639	1459.523458	146.734433	-113.254167	1436.236426	121.594508	327.216694	1178.750714	109.945375	-153.009245	1144.528946	90.220973	351.074121	932.663433	188.230359	-173.763394	904.753418	174.352104
5726	57.25000	88.791120	945.096098	90.364716	56.896075	1501.634246	173.092735	48.687062	1578.025825	323.898183	165.785934	951.113067	94.258918	11.795963	939.079115	86.470650	163.403946	512.122427	145.767643	-51.382778	537.862294	263.031647	157.912077	95.497759	68.764236	-72.135402	223.074903	46.638398	156.510110	45.732720	33.066532	-67.579239	202.914603	-0.945718	142.699132	37.361963	257.821656	-93.886781	89.272195	148.895060	238.904478	1459.502818	148.473854	-113.531371	1436.522394	119.352226	327.238716	1178.819237	114.775488	-153.073350	1145.189995	84.456001	349.612139	933.779786	196.958481	-176.516680	903.465701	163.435969
5727	57.26000	88.576809	945.101066	89.594435	56.006580	1501.738104	172.830555	46.959526	1578.477130	323.454766	165.545447	951.178428	93.682642	11.607852	939.023689	85.506365	163.645949	511.637217	138.528265	-52.196473	539.249889	267.189874	158.771432	95.695968	57.517502	-73.406899	221.351223	60.819461	157.483241	46.008128	21.443812	-68.875593	200.095465	14.187235	143.615496	36.977931	246.930477	-95.632986	91.325557	165.807290	238.215316	1459.482179	150.213275	-113.808574	1436.808361	117.109943	327.260739	1178.887761	119.605602	-153.137455	1145.851044	78.691029	348.150157	934.896139	205.686602	-179.269965	902.177983	152.519834
